<svg xmlns="http://www.w3.org/2000/svg" width="1200" height="630" viewBox="0 0 1200 630" role="img" aria-labelledby="title desc">
  <title id="title">NEXO26 Digital</title>
  <desc id="desc">Vista previa social para páginas web y soluciones digitales.</desc>
  <rect width="1200" height="630" fill="#0A0A0A"/>
  <path d="M-80 650 470 0M40 650 590 0M160 650 710 0M280 650 830 0M400 650 950 0M520 650 1070 0M640 650 1190 0" stroke="#141414" stroke-width="2"/>
  <rect x="72" y="70" width="1056" height="490" rx="28" fill="#171717" stroke="#2B2B2B" stroke-width="2"/>
  <rect x="122" y="122" width="264" height="56" rx="18" fill="#241F16" stroke="#B99752" stroke-width="2"/>
  <text x="150" y="158" fill="#E6D8B9" font-family="Segoe UI, Arial, sans-serif" font-size="26" font-weight="800">NEXO26 DIGITAL</text>
  <text x="122" y="270" fill="#FCFBF8" font-family="Segoe UI, Arial, sans-serif" font-size="64" font-weight="800">Tu negocio, más claro.</text>
  <text x="122" y="346" fill="#FCFBF8" font-family="Segoe UI, Arial, sans-serif" font-size="64" font-weight="800">Tu atención, más profesional.</text>
  <text x="126" y="418" fill="#A8A29A" font-family="Segoe UI, Arial, sans-serif" font-size="29">Páginas web y soluciones digitales para negocios de</text>
  <text x="126" y="456" fill="#A8A29A" font-family="Segoe UI, Arial, sans-serif" font-size="29">la Megalópolis de México.</text>
  <rect x="770" y="198" width="288" height="222" rx="20" fill="#0F0F0F" stroke="#34312A" stroke-width="2"/>
  <text x="808" y="262" fill="#B99752" font-family="Segoe UI, Arial, sans-serif" font-size="24" font-weight="800">Soluciones</text>
  <circle cx="813" cy="309" r="7" fill="#B99752"/>
  <text x="836" y="318" fill="#F7F5F0" font-family="Segoe UI, Arial, sans-serif" font-size="24">Páginas web</text>
  <circle cx="813" cy="351" r="7" fill="#B99752"/>
  <text x="836" y="360" fill="#F7F5F0" font-family="Segoe UI, Arial, sans-serif" font-size="24">Ventas digitales</text>
  <circle cx="813" cy="393" r="7" fill="#B99752"/>
  <text x="836" y="402" fill="#F7F5F0" font-family="Segoe UI, Arial, sans-serif" font-size="24">Presencia local</text>
  <rect x="122" y="492" width="304" height="40" rx="16" fill="#2A261D" stroke="#3C3426"/>
  <text x="150" y="519" fill="#E6D8B9" font-family="Segoe UI, Arial, sans-serif" font-size="22" font-weight="800">Soluciones desde $999 MXN</text>
</svg>
