<svg xmlns="http://www.w3.org/2000/svg" viewBox="0 0 160 160" role="img" aria-labelledby="title">
  <title>Foco Vivo illustration</title>
  <rect width="160" height="160" rx="18" fill="#FFFFFF"/>
  <path d="M34 82h30c7 0 13 6 13 13s-6 13-13 13H52c-14 0-25-11-25-26s11-26 25-26h12c7 0 13 6 13 13" fill="none" stroke="#283C78" stroke-width="8" stroke-linecap="round"/><path d="M126 82H96c-7 0-13 6-13 13s6 13 13 13h12c14 0 25-11 25-26s-11-26-25-26H96c-7 0-13 6-13 13" fill="none" stroke="#77A9A5" stroke-width="8" stroke-linecap="round"/><path d="M77 82h6" stroke="#C99C47" stroke-width="8" stroke-linecap="round"/>
</svg>
